# xmcd CD database file
#
# Track frame offsets:
#	150
#	19932
#	34140
#	47901
#	64813
#	78097
#	90927
#	100827
#	115362
#	129136
#	145326
#	156301
#	183873
#
# Disc length: 3048 seconds
#
# Revision: 0
# Processed by: cddbd v1.5.1PL2 Copyright (c) Steve Scherf et al.
# Submitted via: CDex 1.50
#
DISCID=a20be60d
DTITLE=Nova Era - Millennio
DYEAR=1999
DGENRE=New Age
TTITLE0=Galileo
TTITLE1=Millennio
TTITLE2=Romy's Theme
TTITLE3=Almost A Whisper (Dance Remix)
TTITLE4=Child's Play
TTITLE5=Morning Mist
TTITLE6=Vivaldi, Concerto Per Violino
TTITLE7=Nova Era
TTITLE8=Raggi Di Sole
TTITLE9=Maria Luisa
TTITLE10=Danza
TTITLE11=Futura
TTITLE12=Data Track
EXTD=YEAR: 1999
EXTT0=
EXTT1=
EXTT2=
EXTT3=
EXTT4=
EXTT5=
EXTT6=
EXTT7=
EXTT8=
EXTT9=
EXTT10=
EXTT11=
EXTT12=
PLAYORDER=
